<svg width="241" height="256" viewBox="0 0 241 256" fill="none" xmlns="http://www.w3.org/2000/svg">
<mask id="mask0" style="mask-type:alpha" maskUnits="userSpaceOnUse" x="225" y="88" width="16" height="81">
<path fill-rule="evenodd" clip-rule="evenodd" d="M225.51 88.3207H240.304V168.288H225.51V88.3207Z" fill="white"/>
</mask>
<g mask="url(#mask0)">
<path fill-rule="evenodd" clip-rule="evenodd" d="M239.625 104.452C240.604 99.2743 240.524 94.1433 239.392 89.2023C239.291 88.7633 238.995 88.4563 238.635 88.3563C238.437 88.3013 238.218 88.3083 238 88.3903C237.389 88.6223 237.019 89.3633 237.175 90.0443C238.22 94.5983 238.292 99.3273 237.389 104.099L225.537 166.809C225.402 167.521 225.785 168.174 226.411 168.276C227.027 168.373 227.639 167.874 227.772 167.161L239.625 104.452Z" fill="white"/>
</g>
<path fill-rule="evenodd" clip-rule="evenodd" d="M37.3232 73.1456C37.6622 72.5096 37.5052 71.7216 36.9712 71.3846C36.8872 71.3316 36.8012 71.2926 36.7102 71.2676C36.2252 71.1326 35.6782 71.3886 35.3932 71.9246L3.96324 130.828C2.63624 133.309 1.57824 135.958 0.815244 138.702C0.502244 139.834 0.236244 140.989 0.0262443 142.136C-0.105756 142.849 0.271244 143.498 0.908244 143.597C1.52524 143.69 2.13324 143.188 2.26424 142.474C2.45924 141.416 2.70324 140.35 2.99324 139.306C3.69624 136.778 4.67224 134.337 5.89224 132.05L37.3232 73.1456Z" fill="white"/>
<path fill-rule="evenodd" clip-rule="evenodd" d="M228.449 102.682C230.37 92.5192 225.443 82.9072 216.952 80.2502L206.991 77.3752L210.489 47.3752L182.829 69.8162L82.0373 38.0442C74.1843 35.5872 65.4513 39.7852 60.9803 48.1642L13.6133 136.935C10.5213 142.73 9.96133 149.652 12.1083 155.529C14.2563 161.405 18.8473 165.517 24.4433 166.574L191.945 198.207C196.627 199.091 201.575 197.75 205.665 194.489C209.755 191.226 212.641 186.319 213.67 180.88L228.449 102.682Z" fill="white"/>
<path fill-rule="evenodd" clip-rule="evenodd" d="M20.2051 234.162L17.3351 185.009C17.3031 184.678 17.0131 184.431 16.6761 184.468C16.3451 184.5 16.1021 184.796 16.1351 185.127L19.0051 234.28C19.2381 236.652 20.0331 238.972 21.3051 240.986C21.4191 241.168 21.6141 241.267 21.8141 241.267C21.9251 241.267 22.0361 241.237 22.1361 241.174C22.4171 240.997 22.5011 240.624 22.3231 240.343C21.1361 238.46 20.4231 236.38 20.2051 234.162Z" fill="#EF9500"/>
<path fill-rule="evenodd" clip-rule="evenodd" d="M136.813 168.215C136.78 167.884 136.494 167.65 136.151 167.678C135.82 167.712 135.58 168.009 135.615 168.34C135.666 168.832 135.692 169.333 135.692 169.829C135.692 171.032 135.54 172.23 135.239 173.391L127.499 223.267C127.415 223.589 127.608 223.918 127.93 224.001C127.981 224.015 128.032 224.021 128.082 224.021C128.35 224.021 128.594 223.841 128.665 223.569L136.406 173.694C136.733 172.435 136.898 171.134 136.898 169.829C136.898 169.291 136.87 168.747 136.813 168.215Z" fill="#EF9500"/>
<path fill-rule="evenodd" clip-rule="evenodd" d="M128.687 163.784C126.743 161.452 123.793 160.2 120.766 160.42L30.1196 167.014C27.5846 167.199 25.2336 168.399 23.5966 170.342C21.9596 172.285 21.1766 174.806 21.4256 177.336L25.0036 233.689C25.4686 238.414 29.3756 242.055 34.1216 242.185L35.8216 242.232L38.3116 255.912L49.3256 242.604L109.524 244.262C113.913 244.383 117.803 241.457 118.905 237.206L130.571 172.18C131.333 169.242 130.63 166.116 128.687 163.784Z" fill="#EF9500"/>
<path fill-rule="evenodd" clip-rule="evenodd" d="M118.903 118.219C122.884 99.9484 112.613 93.6544 112.613 93.6544L120.153 49.2604C120.153 49.2604 122.786 41.8824 124.002 39.7484C124.013 39.7264 124.026 39.7054 124.038 39.6844C125.133 37.7074 124.189 35.2254 122.196 34.6874L117.23 33.3444L116.67 33.1934L109.91 31.3654C107.917 30.8274 105.85 32.4944 105.801 34.7544C105.8 34.7784 105.8 34.8024 105.8 34.8274C105.775 37.2834 104.332 44.9834 104.332 44.9834L88.4774 87.1294C88.4774 87.1294 76.4334 87.3914 70.6674 105.179C64.9004 122.967 47.2724 191.719 47.2724 191.719C47.2724 191.719 46.3854 194.997 51.4744 197.428L69.5224 202.307L70.9554 202.695L89.0024 207.573C94.6224 208.037 95.5084 204.759 95.5084 204.759C95.5084 204.759 114.922 136.49 118.903 118.219Z" fill="#74D08D"/>
<path fill-rule="evenodd" clip-rule="evenodd" d="M114.73 36.9176C114.73 36.9176 101.234 87.5486 103.222 94.3476C105.21 101.147 106.517 104.614 107.471 110.089C108.426 115.565 83.3295 205.828 83.3295 205.828C83.3295 205.828 92.6535 210.411 95.5085 204.76C98.3635 199.109 117.998 122.147 117.998 122.147C117.998 122.147 123.398 102.801 112.894 94.0476L120.009 48.7686L124.981 37.6796L114.73 36.9176Z" fill="#007B69"/>
<path fill-rule="evenodd" clip-rule="evenodd" d="M59.3096 181.161C57.8246 180.76 56.9456 179.23 57.3466 177.745L77.2896 103.973C77.6916 102.488 79.2216 101.609 80.7066 102.011C82.1926 102.412 83.0706 103.942 82.6686 105.428L62.7266 179.199C62.3256 180.684 60.7946 181.563 59.3096 181.161Z" fill="white"/>
<path fill-rule="evenodd" clip-rule="evenodd" d="M56.8985 189.669C55.4135 189.268 54.5345 187.737 54.9355 186.252L55.0105 185.975C55.4125 184.489 56.9415 183.61 58.4265 184.013C59.9135 184.414 60.7915 185.943 60.3895 187.429L60.3145 187.706C59.9135 189.191 58.3835 190.07 56.8985 189.669Z" fill="white"/>
<path fill-rule="evenodd" clip-rule="evenodd" d="M111.643 148.035L102.138 145.466C104.006 137.259 99.0766 128.971 90.8776 126.754C82.6796 124.538 74.2466 129.214 71.7246 137.243L62.2196 134.674L56.0956 157.326L65.6006 159.895C63.7336 168.102 68.6626 176.39 76.8606 178.606C85.0596 180.823 93.4936 176.147 96.0146 168.117L105.519 170.686L111.643 148.035Z" fill="#EF9500"/>
<path fill-rule="evenodd" clip-rule="evenodd" d="M110.979 149.071C110.874 149.071 110.767 149.057 110.661 149.028L101.822 146.638C101.192 146.468 100.809 145.832 100.954 145.196C102.691 137.557 98.1257 129.972 90.5617 127.928C82.9967 125.884 75.2317 130.134 72.8837 137.608C72.6887 138.23 72.0357 138.585 71.4077 138.417L62.0697 135.892C61.4207 135.717 61.0377 135.05 61.2127 134.402C61.3877 133.754 62.0557 133.37 62.7037 133.545L70.9527 135.775C74.0827 127.743 82.7457 123.296 91.1957 125.581C99.6457 127.865 104.888 136.071 103.545 144.587L111.295 146.681C111.943 146.856 112.327 147.524 112.151 148.172C112.005 148.714 111.514 149.071 110.979 149.071Z" fill="#223663"/>
<path fill-rule="evenodd" clip-rule="evenodd" d="M81.0186 180.378C79.5406 180.378 78.0396 180.185 76.5436 179.78C68.0926 177.496 62.8506 169.289 64.1946 160.774L56.1116 158.59C55.4636 158.415 55.0806 157.747 55.2546 157.1C55.4306 156.451 56.0996 156.068 56.7466 156.243L65.9176 158.722C66.5476 158.893 66.9306 159.529 66.7866 160.166C65.0476 167.804 69.6126 175.389 77.1776 177.434C84.7426 179.478 92.5076 175.227 94.8546 167.754C95.0496 167.131 95.7026 166.774 96.3316 166.944L105.171 169.334C105.82 169.509 106.203 170.177 106.028 170.824C105.852 171.473 105.185 171.856 104.537 171.681L96.7866 169.586C94.2096 176.195 87.8866 180.378 81.0186 180.378Z" fill="#223663"/>
<path fill-rule="evenodd" clip-rule="evenodd" d="M90.0635 208.835C89.6965 208.835 89.3095 208.819 88.9025 208.785C88.8285 208.779 88.7555 208.767 88.6845 208.747L51.1585 198.603C51.0865 198.583 51.0175 198.558 50.9515 198.526C45.0165 195.69 46.0515 191.576 46.0985 191.402C46.1265 191.298 49.0035 180.517 50.1465 176.093C50.3145 175.443 50.9805 175.051 51.6275 175.221C52.2775 175.389 52.6675 176.052 52.5005 176.702C51.3545 181.134 48.4755 191.925 48.4465 192.033C48.4315 192.106 47.9855 194.373 51.9015 196.285L89.2095 206.371C93.6055 206.688 94.3295 204.465 94.3345 204.442C94.4545 204.016 106.07 162.402 112.625 138.336C112.802 137.689 113.467 137.306 114.118 137.483C114.765 137.66 115.147 138.328 114.971 138.976C108.414 163.049 96.7955 204.669 96.6795 205.087C96.6375 205.24 95.5985 208.835 90.0635 208.835Z" fill="#223663"/>
<path fill-rule="evenodd" clip-rule="evenodd" d="M53.4454 169.133C53.3434 169.133 53.2404 169.119 53.1364 169.093C52.4874 168.922 52.0984 168.258 52.2684 167.609C58.2024 144.917 66.0104 115.601 69.5104 104.804C74.6564 88.9334 84.6274 86.3964 87.6064 85.9904L93.8834 69.3074C94.1194 68.6794 94.8194 68.3614 95.4484 68.5984C96.0774 68.8344 96.3944 69.5354 96.1584 70.1634L89.6154 87.5574C89.4404 88.0224 89.0004 88.3344 88.5044 88.3444C88.0504 88.3594 77.2264 88.8854 71.8234 105.554C68.3414 116.296 60.5464 145.564 54.6204 168.224C54.4774 168.771 53.9844 169.133 53.4454 169.133Z" fill="#223663"/>
<path fill-rule="evenodd" clip-rule="evenodd" d="M115.9 131.755C115.8 131.755 115.698 131.742 115.596 131.716C114.946 131.549 114.555 130.886 114.722 130.236C115.555 127 116.259 124.183 116.816 121.862C117.169 120.391 117.471 119.081 117.715 117.961C121.446 100.84 112.362 94.931 111.973 94.688C111.555 94.427 111.332 93.937 111.415 93.451L118.955 49.057C118.966 48.987 118.985 48.919 119.008 48.852C119.117 48.547 121.692 41.348 122.945 39.147C123.337 38.441 123.383 37.65 123.099 36.979C122.86 36.413 122.416 36.006 121.879 35.861L109.592 32.539C109.056 32.394 108.466 32.522 107.975 32.89C107.391 33.327 107.033 34.034 107.016 34.78C106.99 37.373 105.587 44.889 105.526 45.208C105.513 45.277 105.494 45.345 105.469 45.411L100.091 59.708C99.8553 60.336 99.1543 60.653 98.5263 60.418C97.8973 60.181 97.5803 59.48 97.8163 58.852L103.156 44.656C103.326 43.736 104.562 36.987 104.585 34.815L104.587 34.723C104.619 33.239 105.34 31.825 106.518 30.943C107.612 30.124 108.964 29.851 110.227 30.192L122.513 33.514C123.776 33.856 124.806 34.773 125.338 36.031C125.912 37.386 125.822 38.972 125.1 40.274L125.052 40.359C123.982 42.238 121.65 48.69 121.334 49.57L113.938 93.109C116.308 94.961 123.643 102.176 120.09 118.478C119.843 119.613 119.537 120.939 119.179 122.43C118.62 124.763 117.913 127.593 117.077 130.842C116.935 131.391 116.442 131.755 115.9 131.755Z" fill="#223663"/>
<path fill-rule="evenodd" clip-rule="evenodd" d="M123.843 40.191L105.249 35.164C103.342 34.649 102.214 32.685 102.73 30.778C103.245 28.871 105.209 27.743 107.116 28.258L125.71 33.285C127.616 33.8 128.745 35.764 128.23 37.671C127.714 39.578 125.75 40.706 123.843 40.191Z" fill="#223663"/>
<path fill-rule="evenodd" clip-rule="evenodd" d="M120.154 50.4762C120.049 50.4762 119.942 50.4622 119.837 50.4342L104.014 46.1572C103.367 45.9822 102.983 45.3142 103.158 44.6662C103.334 44.0182 104.002 43.6362 104.649 43.8102L120.47 48.0872C121.119 48.2622 121.502 48.9302 121.327 49.5782C121.18 50.1202 120.69 50.4762 120.154 50.4762Z" fill="#223663"/>
<path fill-rule="evenodd" clip-rule="evenodd" d="M192.278 163.621L180.878 128.719C180.878 128.719 189.817 119.323 197.812 141.56C205.218 162.161 192.278 163.621 192.278 163.621ZM138.86 195.839C139.21 197.026 140.03 198.02 141.119 198.554C149.373 202.593 160.613 200.625 172.882 196.338C190.228 190.275 193.65 184.048 195.548 181.261C196.306 180.147 196.527 178.73 196.157 177.398L194.664 172.026C194.664 172.026 200.784 170.96 206.341 163.358C211.896 155.757 203.049 130.342 196.309 122.277C189.57 114.212 176.511 120.892 176.511 120.892L170.082 102.778C145.661 97.6297 115.266 120.63 115.266 120.63L138.86 195.839Z" fill="white"/>
<path fill-rule="evenodd" clip-rule="evenodd" d="M168.691 112.873C149.001 108.983 124.286 127.343 124.286 127.343L142.817 186.514C143.091 187.449 143.747 188.228 144.623 188.64C151.262 191.77 160.355 190.138 170.296 186.669C184.352 181.764 185.961 177.224 187.513 175.012C188.134 174.128 188.322 173.009 188.033 171.961L168.691 112.873Z" fill="#F6B004"/>
<path fill-rule="evenodd" clip-rule="evenodd" d="M178.688 144.551C178.21 144.551 177.766 144.247 177.61 143.769L167.822 113.866C150.701 110.939 129.594 124.997 125.621 127.783L130.053 141.42C130.247 142.017 129.921 142.656 129.325 142.851C128.728 143.042 128.088 142.718 127.895 142.122L123.206 127.694C123.054 127.23 123.216 126.722 123.608 126.432C123.864 126.242 129.975 121.728 138.617 117.624C150.307 112.072 160.5 110.097 168.91 111.759C169.313 111.839 169.641 112.13 169.769 112.52L179.767 143.063C179.961 143.658 179.637 144.299 179.041 144.494C178.923 144.532 178.804 144.551 178.688 144.551ZM187.511 176.147C187.287 176.147 187.059 176.08 186.862 175.942C186.348 175.581 186.224 174.874 186.584 174.362C187.01 173.754 187.139 172.989 186.938 172.263L181.244 154.872C181.049 154.278 181.374 153.637 181.969 153.442C182.568 153.246 183.207 153.572 183.401 154.167L189.11 171.608C189.507 173.04 189.258 174.5 188.442 175.664C188.221 175.979 187.87 176.147 187.511 176.147ZM152.901 191.438C149.531 191.438 146.639 190.845 144.138 189.667C142.973 189.117 142.094 188.085 141.727 186.834L130.097 149.402C129.912 148.803 130.246 148.167 130.844 147.981C131.443 147.797 132.078 148.129 132.265 148.728L143.9 186.178C144.089 186.823 144.528 187.342 145.106 187.614C150.631 190.219 158.518 189.577 169.922 185.597C173.979 184.182 177.333 182.669 179.89 181.102C180.423 180.773 181.123 180.942 181.45 181.476C181.778 182.01 181.61 182.708 181.076 183.035C178.38 184.688 174.879 186.271 170.669 187.74C163.589 190.211 157.751 191.438 152.901 191.438Z" fill="#223663"/>
<path fill-rule="evenodd" clip-rule="evenodd" d="M152.15 183.308C151.462 183.308 150.823 182.865 150.605 182.173L134.739 131.579C134.471 130.725 134.946 129.817 135.799 129.549C136.652 129.282 137.561 129.756 137.83 130.61L153.696 181.204C153.963 182.057 153.489 182.966 152.635 183.234C152.474 183.285 152.31 183.308 152.15 183.308Z" fill="#EF9500"/>
<path fill-rule="evenodd" clip-rule="evenodd" d="M164.463 179.226C163.775 179.226 163.136 178.784 162.918 178.091L147.052 127.497C146.784 126.643 147.259 125.735 148.112 125.467C148.965 125.199 149.875 125.674 150.143 126.528L166.009 177.122C166.276 177.975 165.802 178.884 164.948 179.152C164.787 179.203 164.623 179.226 164.463 179.226Z" fill="#EF9500"/>
<path fill-rule="evenodd" clip-rule="evenodd" d="M176.774 175.145C176.086 175.145 175.447 174.702 175.23 174.009L159.363 123.415C159.096 122.562 159.57 121.653 160.424 121.385C161.277 121.117 162.186 121.592 162.454 122.446L178.32 173.041C178.587 173.893 178.113 174.802 177.259 175.07C177.098 175.121 176.935 175.145 176.774 175.145Z" fill="#EF9500"/>
<path fill-rule="evenodd" clip-rule="evenodd" d="M182.21 129.086L193.048 162.267C194.172 161.919 196.103 161.031 197.445 158.846C199.657 155.25 199.41 149.407 196.729 141.951C192.943 131.422 189.128 128.56 186.594 128.012C184.582 127.579 182.982 128.501 182.21 129.086ZM192.277 164.773C191.785 164.773 191.34 164.457 191.184 163.978L179.784 129.076C179.652 128.674 179.752 128.232 180.044 127.925C180.162 127.801 182.981 124.895 187.042 125.753C191.572 126.707 195.561 131.895 198.897 141.171C201.875 149.458 202.037 155.826 199.378 160.1C196.812 164.224 192.586 164.745 192.407 164.765C192.363 164.77 192.32 164.773 192.277 164.773ZM116.614 121.081L139.96 195.494C139.962 195.501 139.964 195.506 139.966 195.513C140.226 196.399 140.831 197.129 141.626 197.519C148.557 200.911 158.367 200.19 172.502 195.251C188.582 189.63 192.431 183.859 194.28 181.085L194.597 180.613C195.165 179.778 195.329 178.719 195.048 177.708L193.555 172.335C193.468 172.021 193.517 171.685 193.69 171.411C193.864 171.136 194.147 170.948 194.467 170.891C194.519 170.882 200.232 169.764 205.411 162.678C207.629 159.644 207.411 152.403 204.829 143.306C202.541 135.245 198.674 126.901 195.426 123.015C189.356 115.751 178.306 121.472 178.194 121.53C177.899 121.687 177.55 121.707 177.238 121.586C176.927 121.464 176.683 121.213 176.571 120.898L170.36 103.399C148.745 99.3151 121.215 117.843 116.614 121.081ZM151.689 201.906C147.42 201.906 143.767 201.13 140.613 199.587C139.243 198.917 138.204 197.673 137.759 196.174L114.168 120.975C114.021 120.506 114.187 119.997 114.581 119.705C114.66 119.646 122.682 113.733 133.594 108.544C148.343 101.529 161.083 99.0831 171.464 101.272C171.856 101.354 172.178 101.635 172.312 102.013L178.322 118.946C181.675 117.545 191.257 114.435 197.193 121.539C204.049 129.742 213.401 155.65 207.271 164.038C202.934 169.971 198.251 172.114 196.083 172.831L197.267 177.09C197.73 178.755 197.451 180.512 196.5 181.909L196.196 182.362C194.208 185.344 190.07 191.549 173.262 197.424C164.694 200.419 157.602 201.906 151.689 201.906Z" fill="#223663"/>
<path fill-rule="evenodd" clip-rule="evenodd" d="M150.466 176.309C149.005 176.793 147.429 176.002 146.945 174.541L132.651 130.333C132.166 128.873 132.958 127.296 134.419 126.812C135.879 126.328 137.456 127.12 137.94 128.58L152.234 172.788C152.718 174.248 151.926 175.825 150.466 176.309Z" fill="white"/>
<path fill-rule="evenodd" clip-rule="evenodd" d="M153.146 184.736C151.686 185.22 150.109 184.428 149.625 182.968L149.535 182.696C149.05 181.235 149.841 179.659 151.302 179.174C152.763 178.69 154.339 179.481 154.824 180.942L154.914 181.215C155.398 182.675 154.607 184.252 153.146 184.736Z" fill="white"/>
<path fill-rule="evenodd" clip-rule="evenodd" d="M159.443 90.7062C159.337 90.7412 159.238 90.7882 159.132 90.8252C153.419 84.2582 144.124 81.3802 135.332 84.2612C124.811 87.7082 118.595 98.2272 120.214 108.82C118.927 108.797 117.616 108.973 116.323 109.396C110.123 111.428 106.743 118.102 108.774 124.303C110.806 130.503 117.48 133.883 123.68 131.852C124.902 131.451 126.008 130.866 126.991 130.144C129.006 130.774 131.204 130.868 133.375 130.321L137.816 143.875C138.775 146.804 141.927 148.401 144.856 147.441C147.785 146.481 149.381 143.33 148.422 140.401L144.262 127.705C145.919 127.556 147.584 127.226 149.232 126.685C153.468 125.297 157.004 122.758 159.615 119.533C162.531 120.454 165.747 120.517 168.875 119.492C176.824 116.887 181.156 108.331 178.551 100.383C175.947 92.4342 167.392 88.1022 159.443 90.7062Z" fill="white"/>
<path fill-rule="evenodd" clip-rule="evenodd" d="M149.713 162.452L149.11 162.649C146.349 163.555 143.375 162.049 142.47 159.286C141.566 156.524 143.07 153.551 145.833 152.646L146.436 152.448C149.198 151.544 152.171 153.049 153.076 155.811C153.982 158.573 152.476 161.547 149.713 162.452Z" fill="white"/>
<path fill-rule="evenodd" clip-rule="evenodd" d="M178.553 101.535C178.068 101.535 177.617 101.227 177.458 100.742C175.056 93.4088 167.134 89.3978 159.802 91.8008C159.772 91.8098 159.741 91.8238 159.711 91.8358C159.646 91.8628 159.58 91.8888 159.513 91.9128C159.067 92.0668 158.574 91.9368 158.264 91.5808C155.19 88.0478 150.96 85.6018 146.355 84.6948C145.731 84.5718 145.325 83.9668 145.449 83.3428C145.571 82.7178 146.175 82.3138 146.801 82.4348C151.649 83.3898 156.121 85.8838 159.479 89.4888C167.907 86.9598 176.892 91.6168 179.647 100.025C179.845 100.629 179.515 101.279 178.911 101.477C178.792 101.516 178.671 101.535 178.553 101.535Z" fill="#223663"/>
<path fill-rule="evenodd" clip-rule="evenodd" d="M143.124 148.871C140.291 148.871 137.65 147.068 136.722 144.234L132.602 131.658C130.802 131.954 128.964 131.869 127.201 131.403C126.217 132.062 125.155 132.58 124.039 132.946C119.94 134.289 115.455 133.51 112.043 130.862C111.541 130.472 111.449 129.749 111.84 129.246C112.228 128.745 112.952 128.652 113.455 129.043C116.262 131.221 119.95 131.862 123.322 130.758C124.387 130.409 125.392 129.891 126.311 129.217C126.605 129 126.986 128.937 127.335 129.046C129.2 129.629 131.191 129.684 133.094 129.205C133.68 129.056 134.28 129.389 134.47 129.963L138.91 143.517C139.671 145.838 142.176 147.107 144.498 146.348C146.818 145.587 148.088 143.08 147.327 140.76L143.168 128.064C143.059 127.73 143.107 127.366 143.301 127.072C143.494 126.779 143.81 126.59 144.159 126.559C145.771 126.413 147.357 126.088 148.874 125.592C152.752 124.321 156.156 121.975 158.72 118.809C159.018 118.44 159.509 118.292 159.962 118.435C162.773 119.322 165.731 119.31 168.517 118.398C173.967 116.612 177.833 111.566 178.138 105.841C178.172 105.205 178.714 104.718 179.349 104.752C179.984 104.786 180.472 105.329 180.437 105.963C180.082 112.63 175.58 118.507 169.233 120.586C166.234 121.569 163.064 121.657 160.016 120.848C157.235 124.062 153.646 126.451 149.591 127.78C148.359 128.183 147.088 128.485 145.794 128.68L149.517 140.043C150.672 143.569 148.742 147.379 145.215 148.536C144.521 148.763 143.816 148.871 143.124 148.871Z" fill="#223663"/>
<path fill-rule="evenodd" clip-rule="evenodd" d="M108.774 125.455C108.29 125.455 107.839 125.147 107.68 124.662C105.454 117.868 109.17 110.529 115.964 108.303C116.917 107.991 117.905 107.793 118.916 107.71C117.847 96.8087 124.435 86.6197 134.972 83.1667C135.578 82.9667 136.227 83.2987 136.425 83.9027C136.624 84.5067 136.294 85.1577 135.69 85.3557C125.814 88.5917 119.784 98.3867 121.352 108.647C121.404 108.982 121.304 109.324 121.081 109.579C120.857 109.834 120.525 109.987 120.193 109.972C118.981 109.95 117.799 110.124 116.682 110.491C111.094 112.322 108.038 118.357 109.869 123.945C110.067 124.549 109.737 125.199 109.133 125.397C109.014 125.436 108.893 125.455 108.774 125.455Z" fill="#223663"/>
<path fill-rule="evenodd" clip-rule="evenodd" d="M148.072 153.337C147.647 153.337 147.218 153.403 146.794 153.542L146.191 153.739C145.147 154.082 144.3 154.81 143.803 155.789C143.307 156.77 143.221 157.883 143.564 158.927C143.906 159.971 144.634 160.818 145.614 161.316C146.593 161.811 147.708 161.897 148.752 161.554L149.354 161.357C151.51 160.65 152.687 158.323 151.981 156.169C151.414 154.439 149.801 153.337 148.072 153.337ZM147.465 164.065C146.471 164.065 145.485 163.831 144.574 163.369C143.045 162.596 141.909 161.272 141.376 159.644C140.842 158.016 140.974 156.277 141.749 154.749C142.523 153.22 143.846 152.084 145.474 151.551L146.077 151.354C149.436 150.254 153.068 152.091 154.17 155.452C155.271 158.813 153.432 162.444 150.071 163.545L149.468 163.743C148.811 163.958 148.136 164.065 147.465 164.065Z" fill="#223663"/>
<path fill-rule="evenodd" clip-rule="evenodd" d="M200.979 46.2882C200.385 46.2882 199.902 46.7712 199.902 47.3652C199.902 47.9592 200.385 48.4432 200.979 48.4432C201.573 48.4432 202.056 47.9592 202.056 47.3652C202.056 46.7712 201.573 46.2882 200.979 46.2882ZM200.979 50.0732C199.486 50.0732 198.272 48.8582 198.272 47.3652C198.272 45.8722 199.486 44.6582 200.979 44.6582C202.472 44.6582 203.686 45.8722 203.686 47.3652C203.686 48.8582 202.472 50.0732 200.979 50.0732Z" fill="#223663"/>
<path fill-rule="evenodd" clip-rule="evenodd" d="M213.572 104.865C213.122 104.865 212.758 104.5 212.758 104.05V96.8614C212.758 96.4114 213.122 96.0464 213.572 96.0464C214.022 96.0464 214.387 96.4114 214.387 96.8614V104.05C214.387 104.5 214.022 104.865 213.572 104.865Z" fill="#223663"/>
<path fill-rule="evenodd" clip-rule="evenodd" d="M217.167 101.271H209.978C209.527 101.271 209.163 100.906 209.163 100.456C209.163 100.006 209.527 99.6406 209.978 99.6406H217.167C217.617 99.6406 217.981 100.006 217.981 100.456C217.981 100.906 217.617 101.271 217.167 101.271Z" fill="#223663"/>
<path fill-rule="evenodd" clip-rule="evenodd" d="M47.5616 115.214C47.1116 115.214 46.7476 114.849 46.7476 114.399V107.209C46.7476 106.759 47.1116 106.394 47.5616 106.394C48.0116 106.394 48.3766 106.759 48.3766 107.209V114.399C48.3766 114.849 48.0116 115.214 47.5616 115.214Z" fill="#223663"/>
<path fill-rule="evenodd" clip-rule="evenodd" d="M51.1563 111.619H43.9673C43.5163 111.619 43.1523 111.254 43.1523 110.804C43.1523 110.354 43.5163 109.989 43.9673 109.989H51.1563C51.6063 109.989 51.9713 110.354 51.9713 110.804C51.9713 111.254 51.6063 111.619 51.1563 111.619Z" fill="#223663"/>
<path fill-rule="evenodd" clip-rule="evenodd" d="M43.5079 34.9474C42.9139 34.9474 42.4309 35.4304 42.4309 36.0244C42.4309 36.6184 42.9139 37.1024 43.5079 37.1024C44.1019 37.1024 44.5849 36.6184 44.5849 36.0244C44.5849 35.4304 44.1019 34.9474 43.5079 34.9474ZM43.5079 38.7324C42.0149 38.7324 40.8009 37.5174 40.8009 36.0244C40.8009 34.5314 42.0149 33.3174 43.5079 33.3174C45.0009 33.3174 46.2159 34.5314 46.2159 36.0244C46.2159 37.5174 45.0009 38.7324 43.5079 38.7324Z" fill="#223663"/>
<path fill-rule="evenodd" clip-rule="evenodd" d="M157.775 60.6774C157.325 60.6774 156.96 60.3124 156.96 59.8624V52.6734C156.96 52.2234 157.325 51.8584 157.775 51.8584C158.225 51.8584 158.589 52.2234 158.589 52.6734V59.8624C158.589 60.3124 158.225 60.6774 157.775 60.6774Z" fill="#223663"/>
<path fill-rule="evenodd" clip-rule="evenodd" d="M161.369 57.0826H154.181C153.73 57.0826 153.365 56.7176 153.365 56.2676C153.365 55.8176 153.73 55.4526 154.181 55.4526H161.369C161.819 55.4526 162.184 55.8176 162.184 56.2676C162.184 56.7176 161.819 57.0826 161.369 57.0826Z" fill="#223663"/>
<path fill-rule="evenodd" clip-rule="evenodd" d="M74.6456 70.1339C74.0506 70.1339 73.5676 70.6169 73.5676 71.2109C73.5676 71.8049 74.0506 72.2889 74.6456 72.2889C75.2396 72.2889 75.7226 71.8049 75.7226 71.2109C75.7226 70.6169 75.2396 70.1339 74.6456 70.1339ZM74.6456 73.9189C73.1526 73.9189 71.9376 72.7039 71.9376 71.2109C71.9376 69.7179 73.1526 68.5039 74.6456 68.5039C76.1376 68.5039 77.3526 69.7179 77.3526 71.2109C77.3526 72.7039 76.1376 73.9189 74.6456 73.9189Z" fill="#223663"/>
<path fill-rule="evenodd" clip-rule="evenodd" d="M89.8448 14.882C89.3948 14.882 89.0298 14.517 89.0298 14.067V6.87799C89.0298 6.42699 89.3948 6.06299 89.8448 6.06299C90.2948 6.06299 90.6588 6.42699 90.6588 6.87799V14.067C90.6588 14.517 90.2948 14.882 89.8448 14.882Z" fill="#223663"/>
<path fill-rule="evenodd" clip-rule="evenodd" d="M93.4395 11.2872H86.2505C85.7995 11.2872 85.4355 10.9222 85.4355 10.4722C85.4355 10.0222 85.7995 9.6572 86.2505 9.6572H93.4395C93.8895 9.6572 94.2545 10.0222 94.2545 10.4722C94.2545 10.9222 93.8895 11.2872 93.4395 11.2872Z" fill="#223663"/>
<path fill-rule="evenodd" clip-rule="evenodd" d="M153.45 1.63049C152.856 1.63049 152.373 2.11349 152.373 2.70749C152.373 3.30149 152.856 3.78549 153.45 3.78549C154.045 3.78549 154.528 3.30149 154.528 2.70749C154.528 2.11349 154.045 1.63049 153.45 1.63049ZM153.45 5.41549C151.957 5.41549 150.743 4.20049 150.743 2.70749C150.743 1.21449 151.957 0.000488281 153.45 0.000488281C154.943 0.000488281 156.158 1.21449 156.158 2.70749C156.158 4.20049 154.943 5.41549 153.45 5.41549Z" fill="#223663"/>
<path fill-rule="evenodd" clip-rule="evenodd" d="M141.926 209.674H145.183C147.56 209.674 149.514 210.353 151.046 211.711C152.838 213.298 153.735 215.308 153.735 217.739C153.735 218.932 153.474 220.076 152.952 221.174C152.053 223.069 150.647 224.411 148.737 225.2C147.702 225.627 146.317 225.84 144.579 225.84H142.318C141.236 225.84 140.482 225.698 140.055 225.414C139.502 225.043 139.147 224.577 138.989 224.016C138.895 223.677 138.847 223.069 138.847 222.193V213.31C138.847 212.544 138.859 212.074 138.883 211.901C138.946 211.403 139.127 210.981 139.427 210.633C139.972 209.993 140.805 209.674 141.926 209.674Z" fill="black"/>
<path fill-rule="evenodd" clip-rule="evenodd" d="M165.992 219.611L167.247 221.625C167.595 222.185 167.768 222.761 167.768 223.353C167.768 224.103 167.51 224.725 166.993 225.218C166.475 225.713 165.842 225.959 165.092 225.959C164.129 225.959 163.398 225.548 162.901 224.727L160.675 221.08V223.27C160.675 224.021 160.428 224.656 159.934 225.177C159.44 225.699 158.819 225.959 158.068 225.959C157.152 225.959 156.458 225.632 155.984 224.976C155.557 224.4 155.345 223.642 155.345 222.702V212.742C155.345 210.697 156.446 209.674 158.649 209.674H162.036C163.149 209.674 164.183 209.996 165.139 210.639C166.095 211.283 166.793 212.118 167.235 213.144C167.567 213.919 167.733 214.696 167.733 215.477C167.733 216.938 167.152 218.316 165.992 219.611Z" fill="black"/>
<path fill-rule="evenodd" clip-rule="evenodd" d="M174.91 212.86V222.891C174.91 223.76 174.685 224.474 174.235 225.035C173.754 225.651 173.086 225.959 172.233 225.959C171.452 225.959 170.793 225.671 170.256 225.094C169.806 224.613 169.581 223.879 169.581 222.891V212.86C169.581 211.739 169.806 210.925 170.256 210.421C170.768 209.844 171.429 209.555 172.233 209.555C173.039 209.555 173.698 209.84 174.212 210.409C174.678 210.929 174.91 211.747 174.91 212.86Z" fill="black"/>
<path fill-rule="evenodd" clip-rule="evenodd" d="M186.197 215.821V212.813C186.197 211.889 186.359 211.186 186.683 210.705C187.198 209.939 187.934 209.555 188.891 209.555C189.715 209.555 190.391 209.876 190.921 210.515C191.341 211.02 191.551 211.727 191.551 212.635V222.549C191.551 223.654 191.356 224.455 190.969 224.953C190.449 225.624 189.758 225.959 188.897 225.959C188.037 225.959 187.326 225.6 186.765 224.882L182.513 219.457V222.856C182.513 223.796 182.32 224.507 181.933 224.988C181.412 225.635 180.729 225.959 179.885 225.959C178.984 225.959 178.273 225.612 177.753 224.917C177.374 224.412 177.184 223.654 177.184 222.643V212.422C177.184 211.561 177.434 210.869 177.935 210.343C178.435 209.818 179.116 209.555 179.975 209.555C180.717 209.555 181.375 209.907 181.951 210.61L186.197 215.821Z" fill="black"/>
<path fill-rule="evenodd" clip-rule="evenodd" d="M199.143 215.146L202.151 210.788C202.719 209.966 203.454 209.555 204.354 209.555C205.088 209.555 205.723 209.816 206.26 210.337C206.797 210.859 207.066 211.482 207.066 212.208C207.066 212.746 206.923 213.219 206.639 213.629L203.927 217.574L207.244 221.778C207.576 222.197 207.741 222.686 207.741 223.247C207.741 223.989 207.48 224.626 206.959 225.16C206.438 225.693 205.806 225.959 205.064 225.959C204.251 225.959 203.631 225.695 203.205 225.166L199.143 220.096V222.891C199.143 223.689 199.004 224.309 198.728 224.75C198.223 225.556 197.489 225.959 196.525 225.959C195.649 225.959 194.969 225.663 194.488 225.071C194.038 224.526 193.813 223.803 193.813 222.903V212.541C193.813 211.687 194.041 210.985 194.499 210.432C194.982 209.848 195.645 209.555 196.49 209.555C197.295 209.555 197.966 209.848 198.503 210.432C198.803 210.756 198.993 211.084 199.072 211.416C199.119 211.621 199.143 212.003 199.143 212.564V215.146Z" fill="black"/>
<path fill-rule="evenodd" clip-rule="evenodd" d="M155.747 233.695H154.338C153.557 233.695 152.909 233.481 152.395 233.055C151.851 232.597 151.578 231.985 151.578 231.219C151.578 230.761 151.707 230.321 151.964 229.899C152.22 229.476 152.552 229.176 152.958 228.999C153.365 228.821 154.33 228.732 155.854 228.732H161.231C162.55 228.732 163.402 228.811 163.789 228.969C164.216 229.143 164.56 229.441 164.825 229.863C165.09 230.286 165.223 230.73 165.223 231.196C165.223 231.93 164.93 232.569 164.346 233.114C163.928 233.502 163.244 233.695 162.297 233.695H161.077V241.748C161.077 242.625 160.927 243.303 160.627 243.785C160.122 244.591 159.392 244.993 158.435 244.993C157.48 244.993 156.746 244.626 156.233 243.892C155.909 243.434 155.747 242.739 155.747 241.807V233.695Z" fill="black"/>
<path fill-rule="evenodd" clip-rule="evenodd" d="M169.178 242.802C168.925 243.402 168.665 243.848 168.397 244.14C167.86 244.725 167.208 245.017 166.443 245.017C165.503 245.017 164.773 244.638 164.251 243.879C163.944 243.43 163.789 242.924 163.789 242.364C163.789 241.898 163.9 241.428 164.121 240.954L169.178 230.189C169.668 229.139 170.485 228.614 171.63 228.614C172.79 228.614 173.623 229.155 174.129 230.236L179.234 241.084C179.439 241.519 179.541 241.949 179.541 242.375C179.541 243.007 179.336 243.568 178.925 244.057C178.389 244.697 177.701 245.017 176.865 245.017C176.178 245.017 175.606 244.803 175.148 244.377C174.808 244.061 174.468 243.536 174.129 242.802H169.178Z" fill="black"/>
<path fill-rule="evenodd" clip-rule="evenodd" d="M185.759 239.9H188.376C189.182 239.9 189.818 240.066 190.283 240.398C190.962 240.887 191.302 241.55 191.302 242.387C191.302 243.145 191.026 243.777 190.473 244.283C190.03 244.693 189.371 244.898 188.495 244.898H183.414C182.419 244.898 181.665 244.618 181.152 244.057C180.78 243.647 180.552 243.122 180.465 242.482C180.442 242.277 180.43 241.689 180.43 240.717V231.598C180.43 230.738 180.655 230.035 181.105 229.49C181.586 228.906 182.245 228.614 183.082 228.614C183.967 228.614 184.657 228.937 185.155 229.585C185.558 230.106 185.759 230.994 185.759 232.25V239.9Z" fill="black"/>
<path fill-rule="evenodd" clip-rule="evenodd" d="M197.531 234.204L200.54 229.846C201.108 229.024 201.843 228.614 202.742 228.614C203.476 228.614 204.112 228.875 204.649 229.395C205.186 229.917 205.455 230.541 205.455 231.266C205.455 231.804 205.312 232.277 205.028 232.688L202.316 236.632L205.633 240.837C205.964 241.255 206.13 241.744 206.13 242.305C206.13 243.047 205.869 243.684 205.347 244.218C204.827 244.751 204.195 245.017 203.453 245.017C202.639 245.017 202.02 244.753 201.593 244.224L197.531 239.154V241.95C197.531 242.747 197.393 243.367 197.117 243.809C196.611 244.614 195.877 245.017 194.914 245.017C194.037 245.017 193.358 244.721 192.877 244.129C192.427 243.584 192.202 242.861 192.202 241.962V231.599C192.202 230.746 192.43 230.043 192.888 229.49C193.37 228.906 194.033 228.614 194.879 228.614C195.683 228.614 196.354 228.906 196.891 229.49C197.191 229.814 197.381 230.142 197.46 230.474C197.508 230.679 197.531 231.061 197.531 231.622V234.204Z" fill="black"/>
<path fill-rule="evenodd" clip-rule="evenodd" d="M147.161 244.626C146.166 245.101 145.246 245.337 144.401 245.337C142.838 245.337 141.468 244.804 140.292 243.738C139.005 242.577 138.361 241.148 138.361 239.451C138.361 238.772 138.483 238.176 138.728 237.662C138.926 237.244 139.281 236.738 139.794 236.147C139.131 235.238 138.8 234.366 138.8 233.529C138.8 232.037 139.431 230.762 140.694 229.703C141.823 228.764 143.102 228.294 144.531 228.294C145.59 228.294 146.597 228.566 147.552 229.111C148.246 229.506 148.827 230.016 149.293 230.64C149.821 231.35 150.086 232.064 150.086 232.783C150.086 233.485 149.83 234.084 149.316 234.577C148.803 235.07 148.191 235.317 147.48 235.317C146.541 235.317 145.771 234.848 145.171 233.908C144.997 233.632 144.788 233.493 144.544 233.493C144.077 233.493 143.845 233.73 143.845 234.204C143.845 234.512 144.098 234.78 144.602 235.01C145.329 235.333 145.692 235.839 145.692 236.525C145.692 236.928 145.578 237.315 145.349 237.687C145.096 238.081 144.78 238.322 144.401 238.408C144.181 238.456 144.05 238.483 144.011 238.491C143.758 238.594 143.632 238.835 143.632 239.214C143.632 239.703 143.872 239.948 144.354 239.948C144.796 239.948 145.317 239.486 145.917 238.563C146.162 238.191 146.312 237.967 146.367 237.888C146.541 237.658 146.726 237.473 146.924 237.331C147.43 236.976 147.962 236.798 148.522 236.798C149.186 236.798 149.804 237.039 150.376 237.521C150.949 238.002 151.235 238.57 151.235 239.226C151.235 239.597 151.089 240.11 150.797 240.766C151.381 241.437 151.673 242.08 151.673 242.696C151.673 243.414 151.405 244.034 150.868 244.556C150.331 245.076 149.703 245.337 148.984 245.337C148.456 245.337 147.848 245.101 147.161 244.626Z" fill="black"/>
</svg>
